HIERARCHY
ROOT Hips
{
	OFFSET 0.000000 8.830580 0.000000
	CHANNELS 6 Xposition Yposition Zposition Zrotation Yrotation Xrotation 
	JOINT Spine
	{
		OFFSET 0.000000 0.010000 0.000000
		CHANNELS 3 Zrotation Yrotation Xrotation
		JOINT Spine1
		{
			OFFSET 0.000000 2.459130 0.000000
			CHANNELS 3 Zrotation Yrotation Xrotation
			JOINT Neck
			{
				OFFSET 0.000000 2.484630 0.000000
				CHANNELS 3 Zrotation Yrotation Xrotation
				JOINT Head_virtual
				{
					OFFSET 0.000000 0.000000 0.000000
					CHANNELS 3 Zrotation Yrotation Xrotation
					JOINT Head
					{
						OFFSET 0.000000 0.927525 0.000000
						CHANNELS 3 Zrotation Yrotation Xrotation
						End Site
						{
							OFFSET 0.000000 0.000000 0.000000
						}
					}
				}
				JOINT LeftUpArm_virtual
				{
					OFFSET 0.000000 0.000000 0.000000
					CHANNELS 3 Zrotation Yrotation Xrotation
					JOINT LeftUpArm
					{
						OFFSET 1.248820 0.000000 0.000000
						CHANNELS 3 Zrotation Yrotation Xrotation
						JOINT LeftForeArm
						{
							OFFSET 2.597580 0.000000 0.000000
							CHANNELS 3 Zrotation Yrotation Xrotation
							JOINT LeftHand
							{
								OFFSET 2.455420 0.000000 0.000000
								CHANNELS 3 Zrotation Yrotation Xrotation
								End Site
								{
									OFFSET 0.000000 0.000000 0.000000
								}
							}
						}
					}
				}
				JOINT RightUpArm_virtual
				{
					OFFSET -0.000000 -0.000000 -0.000000
					CHANNELS 3 Zrotation Yrotation Xrotation
					JOINT RightUpArm
					{
						OFFSET -1.248820 -0.000000 -0.000000
						CHANNELS 3 Zrotation Yrotation Xrotation
						JOINT RightForeArm
						{
							OFFSET -2.597580 -0.000000 -0.000000
							CHANNELS 3 Zrotation Yrotation Xrotation
							JOINT RightHand
							{
								OFFSET -2.455420 -0.000000 -0.000000
								CHANNELS 3 Zrotation Yrotation Xrotation
								End Site
								{
									OFFSET 0.000000 0.000000 0.000000
								}
							}
						}
					}
				}
			}
		}
	}
	JOINT LeftUpLeg
	{
		OFFSET 1.271939 0.000000 0.000000
		CHANNELS 3 Zrotation Yrotation Xrotation
		JOINT LeftLowLeg
		{
			OFFSET 0.000000 -4.342910 0.000000
			CHANNELS 3 Zrotation Yrotation Xrotation
			JOINT LeftFoot
			{
				OFFSET 0.000000 -4.487670 0.000000
				CHANNELS 3 Zrotation Yrotation Xrotation
				JOINT LeftToeBase
				{
					OFFSET 0.000000 0.000000 1.515070
					CHANNELS 3 Zrotation Yrotation Xrotation
					End Site
					{
						OFFSET 0.000000 0.000000 0.000000
					}
				}
			}
		}
	}
	JOINT RightUpLeg
	{
		OFFSET -1.271939 0.000000 0.000000
		CHANNELS 3 Zrotation Yrotation Xrotation
		JOINT RightLowLeg
		{
			OFFSET 0.000000 -4.342910 0.000000
			CHANNELS 3 Zrotation Yrotation Xrotation
			JOINT RightFoot
			{
				OFFSET 0.000000 -4.487670 0.000000
				CHANNELS 3 Zrotation Yrotation Xrotation
				JOINT RightToeBase
				{
					OFFSET 0.000000 0.000000 1.515070
					CHANNELS 3 Zrotation Yrotation Xrotation
					End Site
					{
						OFFSET 0.000000 0.000000 0.000000
					}
				}
			}
		}
	}
}
MOTION
Frames: 13
Frame Time: 0.041667
-18.300367 9.140028 42.991082 -174.520546 5.513127 -169.519145 3.369862 2.181502 -10.290439 2.093895 2.517553 -9.727620 0.000000 0.000000 0.000000 -26.815146 10.187666 9.388097 12.700478 33.203406 -85.759560 -23.415600 8.897300 -10.386000 17.772100 -16.893900 -27.141199 0.000000 -6.755500 0.000000 18.284000 10.000300 28.478600 21.040701 -8.623030 -1.213013 -7.782230 -0.724764 -50.750900 0.000000 15.881500 0.000000 -14.066700 -20.811001 47.191101 1.825187 8.246420 -5.546991 0.000000 0.000000 6.003580 -9.260321 11.116706 -0.343240 0.000000 0.000000 -33.164801 6.616222 7.313486 -7.523104 0.000000 0.000000 6.751210 12.477401 -18.565638 4.533691 0.000000 0.000000 -33.065001 
-18.297919 9.139674 42.988234 -174.511815 5.482290 -169.515749 3.265235 2.151625 -10.403016 2.120366 2.514319 -9.676505 0.000000 0.000000 0.000000 -26.757210 10.163550 9.516730 12.758152 33.239782 -85.702395 -23.400801 8.860690 -10.319900 17.855499 -16.961800 -27.127399 0.000000 -6.923820 0.000000 18.481501 9.865620 28.499300 21.071100 -8.514680 -1.058014 -7.713280 -0.729883 -50.848400 0.000000 15.871200 0.000000 -14.232300 -20.783300 47.150600 1.850665 8.270662 -5.512224 0.000000 0.000000 5.960970 -9.429199 11.014341 -0.397828 0.000000 0.000000 -33.068399 6.641214 7.332164 -7.500238 0.000000 0.000000 6.743740 12.488023 -18.601692 4.506788 0.000000 0.000000 -33.051500 
-18.295685 9.139641 42.985665 -174.501145 5.444528 -169.518599 3.161339 2.124856 -10.485891 2.175660 2.513667 -9.630344 0.000000 0.000000 0.000000 -26.769441 10.176269 9.594185 12.820581 33.240120 -85.659744 -23.455900 8.874180 -10.243000 18.050301 -17.172701 -26.922001 0.000000 -6.822320 0.000000 18.597799 9.624420 28.120300 21.090200 -8.460050 -0.984009 -7.674330 -0.719401 -51.021900 0.000000 15.898200 0.000000 -14.055800 -20.655100 46.910301 1.879892 8.252226 -5.480002 0.000000 0.000000 5.926250 -9.274513 11.066306 -0.343080 0.000000 0.000000 -33.143999 6.669107 7.306332 -7.461807 0.000000 0.000000 6.715030 12.498847 -18.595026 4.506084 0.000000 0.000000 -33.032801 
-18.293487 9.139372 42.983552 -174.497046 5.409172 -169.517310 3.064902 2.105606 -10.545802 2.206263 2.520111 -9.621614 0.000000 0.000000 0.000000 -26.834555 10.237985 9.643304 12.971998 33.212428 -85.575812 -23.447901 8.834720 -10.202300 18.055799 -17.191200 -27.007000 0.000000 -7.072250 0.000000 18.762100 9.527340 28.105499 21.098499 -8.442410 -0.946014 -7.631700 -0.686490 -50.979000 0.000000 15.956300 0.000000 -13.886600 -20.597900 46.689701 1.902736 8.235765 -5.466364 0.000000 0.000000 5.916870 -9.298917 11.048088 -0.359258 0.000000 0.000000 -33.132401 6.687750 7.329587 -7.439813 0.000000 0.000000 6.701500 12.505789 -18.634257 4.488124 0.000000 0.000000 -33.066999 
-18.291777 9.138953 42.981887 -174.488010 5.383157 -169.509920 2.975964 2.102739 -10.595617 2.256438 2.540221 -9.601203 0.000000 0.000000 0.000000 -26.882033 10.226878 9.671906 12.950486 33.181220 -85.602345 -23.446301 8.822090 -10.210100 18.023300 -17.275299 -27.016399 0.000000 -7.229920 0.000000 18.809200 9.386190 28.045601 21.096001 -8.432270 -0.897003 -7.613850 -0.696619 -50.800598 0.000000 16.094400 0.000000 -13.768500 -20.659599 46.518600 1.926237 8.181665 -5.461646 0.000000 0.000000 5.911950 -9.312492 11.079861 -0.380900 0.000000 0.000000 -33.154900 6.707830 7.356643 -7.435105 0.000000 0.000000 6.703420 12.503884 -18.683039 4.462912 0.000000 0.000000 -33.064899 
-18.290518 9.138792 42.980453 -174.479061 5.368587 -169.514605 2.921447 2.102434 -10.625736 2.247884 2.555408 -9.607474 0.000000 0.000000 0.000000 -26.890584 10.221641 9.714610 12.923136 33.186619 -85.617389 -23.472799 8.833790 -10.176200 18.084499 -17.392200 -27.016600 0.000000 -7.284290 0.000000 18.749399 9.296140 27.834200 21.096100 -8.475550 -0.894989 -7.575790 -0.587198 -50.921902 0.000000 16.130699 0.000000 -13.521200 -20.424101 46.401798 1.947210 8.140184 -5.455915 0.000000 0.000000 5.929220 -9.484497 11.049950 -0.461455 0.000000 0.000000 -33.056499 6.723498 7.355609 -7.413103 0.000000 0.000000 6.694220 12.526624 -18.671881 4.453854 0.000000 0.000000 -33.062000 
-18.289418 9.138720 42.978908 -174.477200 5.367713 -169.522116 2.881872 2.108496 -10.651696 2.202462 2.573951 -9.626235 0.000000 0.000000 0.000000 -26.870284 10.253228 9.765177 12.968948 33.220327 -85.559804 -23.465599 8.804270 -10.065700 18.099899 -17.367901 -27.226700 0.000000 -7.463340 0.000000 18.688499 9.306610 27.760099 21.102400 -8.613580 -0.890991 -7.538490 -0.346239 -50.945499 0.000000 16.150801 0.000000 -13.396900 -20.202700 46.199501 1.958333 8.119307 -5.447568 0.000000 0.000000 5.947040 -9.495422 11.069028 -0.475853 0.000000 0.000000 -33.077000 6.731883 7.366352 -7.403421 0.000000 0.000000 6.710270 12.539333 -18.676752 4.441840 0.000000 0.000000 -33.077299 
-18.288379 9.138665 42.977351 -174.473451 5.377565 -169.526395 2.848979 2.114585 -10.693267 2.171624 2.589744 -9.621330 0.000000 0.000000 0.000000 -26.887582 10.279620 9.800025 13.077470 33.203161 -85.482168 -23.471500 8.809870 -9.963410 18.131901 -17.395201 -27.355000 0.000000 -7.508810 0.000000 18.614901 9.318330 27.524300 21.120399 -8.585640 -0.773987 -7.544080 -0.336565 -51.084801 0.000000 16.236401 0.000000 -13.284900 -20.063900 45.970501 1.966083 8.126398 -5.434744 0.000000 0.000000 5.954300 -9.335066 11.145884 -0.436942 0.000000 0.000000 -33.132999 6.738226 7.402645 -7.392212 0.000000 0.000000 6.718520 12.551171 -18.695193 4.429756 0.000000 0.000000 -33.083599 
-18.287498 9.138467 42.975849 -174.465930 5.404703 -169.521278 2.824996 2.134837 -10.720028 2.128746 2.618246 -9.649669 0.000000 0.000000 0.000000 -26.777613 10.177412 9.924948 13.073944 33.229252 -85.448978 -23.452700 8.788200 -9.919130 18.076500 -17.363501 -27.535601 0.000000 -7.632640 0.000000 18.654301 9.305230 27.561600 21.114401 -8.579760 -0.790009 -7.521350 -0.332650 -50.980202 0.000000 16.309601 0.000000 -13.178100 -19.848400 45.643299 1.975188 8.130297 -5.423866 0.000000 0.000000 5.957040 -9.368833 11.160746 -0.462752 0.000000 0.000000 -33.122700 6.746907 7.416040 -7.389594 0.000000 0.000000 6.724310 12.544498 -18.680550 4.424622 0.000000 0.000000 -33.052601 
-18.286595 9.138101 42.973583 -174.453039 5.421446 -169.516468 2.803707 2.141287 -10.781719 2.107172 2.631177 -9.652784 0.000000 0.000000 0.000000 -26.660191 10.136692 10.138192 13.137886 33.295318 -85.308413 -23.429501 8.788870 -10.054500 17.958900 -17.385200 -27.191900 0.000000 -7.705410 0.000000 18.741100 9.293450 27.500799 21.111401 -8.554280 -0.752991 -7.543000 -0.330669 -50.908501 0.000000 16.358700 0.000000 -13.102100 -19.736000 45.512001 1.988341 8.185780 -5.411012 0.000000 0.000000 5.959040 -9.365056 11.130014 -0.482882 0.000000 0.000000 -33.131500 6.765573 7.394375 -7.372851 0.000000 0.000000 6.715800 12.528150 -18.647336 4.428609 0.000000 0.000000 -33.047400 
-18.285944 9.137753 42.971793 -174.448024 5.441618 -169.506358 2.781607 2.144296 -10.866501 2.078461 2.640162 -9.615753 0.000000 0.000000 0.000000 -26.465776 9.955062 10.398923 13.280015 33.312300 -85.164006 -23.455200 8.772320 -10.010900 17.957001 -17.326000 -27.101999 0.000000 -7.750780 0.000000 18.894300 9.219690 27.422100 21.127600 -8.495350 -0.752991 -7.566800 -0.370559 -50.914600 0.000000 16.456600 0.000000 -12.941800 -19.712000 45.411499 1.990738 8.224599 -5.409096 0.000000 0.000000 5.965980 -9.374044 11.116180 -0.504160 0.000000 0.000000 -33.123301 6.773348 7.384969 -7.360308 0.000000 0.000000 6.694580 12.523461 -18.624359 4.434132 0.000000 0.000000 -33.109600 
-18.285138 9.137416 42.969395 -174.439103 5.452213 -169.489712 2.752371 2.137348 -10.969626 2.083221 2.640481 -9.574712 0.000000 0.000000 0.000000 -26.155793 9.580322 10.786417 13.518328 33.262657 -84.932040 -23.474100 8.786740 -10.069200 17.844000 -17.286100 -27.006201 0.000000 -7.818280 0.000000 19.133600 9.060730 27.270000 21.112200 -8.461070 -0.774994 -7.580090 -0.345906 -50.729198 0.000000 16.479700 0.000000 -13.075800 -19.615499 45.417400 1.999501 8.232643 -5.401022 0.000000 0.000000 5.954780 -9.384251 11.128143 -0.525990 0.000000 0.000000 -33.120501 6.783560 7.386340 -7.348693 0.000000 0.000000 6.668330 12.511877 -18.616821 4.440796 0.000000 0.000000 -33.113800 
-18.284339 9.136956 42.966586 -174.432817 5.443629 -169.488022 2.724548 2.124481 -11.058897 2.073647 2.635481 -9.558145 0.000000 0.000000 0.000000 -25.600870 8.855953 11.390117 13.824471 33.150600 -84.597288 -23.521400 8.790590 -9.940060 17.799601 -17.162600 -27.286800 0.000000 -7.947070 0.000000 19.299601 8.946610 26.971399 21.126699 -8.413970 -0.720001 -7.594390 -0.389036 -50.816601 0.000000 16.489100 0.000000 -13.113000 -19.306200 45.576500 2.010868 8.247728 -5.380229 0.000000 0.000000 5.944260 -9.391446 11.108816 -0.541242 0.000000 0.000000 -33.137699 6.796439 7.368104 -7.315492 0.000000 0.000000 6.639860 12.506322 -18.600453 4.432558 0.000000 0.000000 -33.101900 
